<svg xmlns="http://www.w3.org/2000/svg" xmlns:xlink="http://www.w3.org/1999/xlink" xmlns:svgjs="http://svgjs.com/svgjs" version="1.1" width="512" height="512" x="0" y="0" viewBox="0 0 32 32" style="enable-background:new 0 0 512 512" xml:space="preserve" class=""><g><path xmlns="http://www.w3.org/2000/svg" d="m26 32h-20c-3.314 0-6-2.686-6-6v-20c0-3.314 2.686-6 6-6h20c3.314 0 6 2.686 6 6v20c0 3.314-2.686 6-6 6z" fill="#ffe6e2" data-original="#fff9dd" style="" class=""/><path xmlns="http://www.w3.org/2000/svg" d="m21.667 13.167c-.368 0-.667.299-.667.667v7.166c0 .368-.299.667-.667.667h-2.667v-.5c0-.276-.224-.5-.5-.5h-.5v-4.5c0-.368-.299-.667-.667-.667s-.667.299-.667.667v4.5h-.5c-.276 0-.5.224-.5.5v.5h-2.667c-.366 0-.665-.299-.665-.667v-6.833c0-.368-.299-.667-.667-.667s-.667.299-.667.667v6.833c0 1.103.897 2 2 2h2.667v.5c0 .276.224.5.5.5h2.333c.276 0 .5-.224.5-.5v-.5h2.667c1.103 0 2-.897 2-2v-7.167c0-.368-.298-.666-.666-.666z" fill="#fd907e" data-original="#ffe777" style="" class=""/><g xmlns="http://www.w3.org/2000/svg" fill="#ffd200"><path d="m21.333 11.333c-.735 0-1.333-.598-1.333-1.333s.598-1.333 1.333-1.333 1.333.598 1.333 1.333c.001.735-.598 1.333-1.333 1.333z" fill="#fc573b" data-original="#ffd200" style="" class=""/><path d="m10.667 11.333c-.735 0-1.333-.598-1.333-1.333s.598-1.333 1.333-1.333 1.333.598 1.333 1.333-.598 1.333-1.333 1.333z" fill="#fc573b" data-original="#ffd200" style="" class=""/><path d="m16 12c-1.103 0-2-.897-2-2s.897-2 2-2 2 .897 2 2-.897 2-2 2z" fill="#fc573b" data-original="#ffd200" style="" class=""/><path d="m19.167 16.667h-6.333c-.276 0-.5-.224-.5-.5v-1c0-1.011.822-1.833 1.833-1.833h3.667c1.011 0 1.833.822 1.833 1.833v1c0 .276-.224.5-.5.5z" fill="#fc573b" data-original="#ffd200" style="" class=""/><path d="m11.5 12h-1.667c-1.013 0-1.833.82-1.833 1.833v.333c0 .273.227.5.5.5h2.54c.153-.98.76-1.807 1.6-2.273-.313-.246-.707-.393-1.14-.393z" fill="#fc573b" data-original="#ffd200" style="" class=""/><path d="m22.167 12h-1.667c-.433 0-.827.147-1.14.393.84.467 1.447 1.293 1.6 2.273h2.54c.273 0 .5-.227.5-.5v-.333c0-1.013-.82-1.833-1.833-1.833z" fill="#fc573b" data-original="#ffd200" style="" class=""/><path d="m17.167 24h-2.333c-.276 0-.5-.224-.5-.5v-2.333c0-.276.224-.5.5-.5h2.333c.276 0 .5.224.5.5v2.333c0 .276-.224.5-.5.5z" fill="#fc573b" data-original="#ffd200" style="" class=""/></g></g></svg>